<svg class="svg-icon" style="width: 1em; height: 1em;vertical-align: middle;fill: currentColor;overflow: hidden;" viewBox="0 0 1024 1024" version="1.1" xmlns="http://www.w3.org/2000/svg"><path d="M571.5 552.5m-242 0a242 242 0 1 0 484 0 242 242 0 1 0-484 0Z" fill="#F7D134" /><path d="M531 770a258 258 0 1 1 182.43-75.57A256.31 256.31 0 0 1 531 770z m0-484c-124.62 0-226 101.38-226 226s101.38 226 226 226 226-101.38 226-226-101.38-226-226-226z" fill="" /><path d="M531 212.11a12 12 0 0 1-12-12V80a12 12 0 0 1 24 0v120.11a12 12 0 0 1-12 12zM310.46 303.46a12 12 0 0 1-8.49-3.52L217 215a12 12 0 0 1 17-17l84.94 85a12 12 0 0 1-8.48 20.49zM219.11 524H99a12 12 0 0 1 0-24h120.11a12 12 0 0 1 0 24zM225.53 829.47A12 12 0 0 1 217 809l85-84.94a12 12 0 1 1 17 17L234 826a12 12 0 0 1-8.47 3.47zM531 956a12 12 0 0 1-12-12V823.89a12 12 0 1 1 24 0V944a12 12 0 0 1-12 12zM836.47 829.47A12 12 0 0 1 828 826l-84.94-85a12 12 0 0 1 17-17L845 809a12 12 0 0 1-8.49 20.49zM963 524H842.89a12 12 0 1 1 0-24H963a12 12 0 0 1 0 24zM751.54 303.46a12 12 0 0 1-8.48-20.46L828 198a12 12 0 0 1 17 17l-85 84.94a12 12 0 0 1-8.46 3.52z" fill="" /></svg>