<svg class="svg-icon" style="width: 1em; height: 1em;vertical-align: middle;fill: currentColor;overflow: hidden;" viewBox="0 0 1024 1024" version="1.1" xmlns="http://www.w3.org/2000/svg"><path d="M431.82 224a138.1 138.1 0 0 0-98.54-43C256.83 180 193.6 241.93 193 318.38a137.92 137.92 0 0 0 32.71 90.5c17.73 20.95 51.16 17.72 64.14-6.45C316 353.72 362.21 312.44 421 284.1a37.81 37.81 0 0 0 10.82-60.1z" fill="#F7D134" /><path d="M264.41 441.47a16.31 16.31 0 0 1-4.39-0.61 154.41 154.41 0 0 1-106.2-190.81c23.33-81.88 108.92-129.52 190.8-106.2A154.45 154.45 0 0 1 453.94 263a16 16 0 0 1-31.41 6.12 122.43 122.43 0 1 0-153.74 141 16 16 0 0 1-4.38 31.39zM351.2 132.8a12.16 12.16 0 0 1-3.3-0.46 12 12 0 0 1-8.25-14.83l18.82-66.07A12 12 0 0 1 381.55 58l-18.82 66.06a12 12 0 0 1-11.53 8.74z" fill="" /><path d="M215.58 148.49a12 12 0 0 1-10.5-6.16l-33.4-60a12 12 0 1 1 21-11.67l33.4 60a12 12 0 0 1-10.47 17.84zM130.77 255.49a12.09 12.09 0 0 1-3.29-0.46l-66.07-18.82A12 12 0 0 1 68 213.13l66.06 18.81a12 12 0 0 1-3.28 23.55zM86.44 424.52A12 12 0 0 1 80.6 402l60-33.41a12 12 0 1 1 11.67 21l-60 33.41a11.94 11.94 0 0 1-5.83 1.52zM458.2 217.6a12 12 0 0 1-5.85-22.48l60-33.41a12 12 0 1 1 11.67 21l-60 33.41a11.89 11.89 0 0 1-5.82 1.48z" fill="" /><path d="M790.4 458.17c-28.24-98.68-119.12-170.92-226.88-170.92-110 0-202.49 75.33-228.6 177.23a211.72 211.72 0 0 0-21.48-1.1c-115 0-208.31 93.27-208.31 208.31S198.39 880 313.44 880h443.14c117.23 0 212.26-95 212.26-212.26 0-105.74-77.29-193.37-178.44-209.57z" fill="#CEE9F4" /><path d="M706.58 866h-153.5a16 16 0 1 1 0-32h153.5c108.22 0 196.26-88 196.26-196.26 0-97-69.38-178.46-165-193.77A16 16 0 0 1 725 432.58c-26.85-93.81-113.82-159.33-211.5-159.33a219.8 219.8 0 0 0-213.1 165.2 16 16 0 0 1-17.13 11.95 196.18 196.18 0 0 0-19.85-1c-106 0-192.31 86.27-192.31 192.31S157.4 834 263.44 834h26.4a16 16 0 0 1 0 32h-26.4a224.31 224.31 0 0 1 0-448.62q4.81 0 9.66 0.21a252.06 252.06 0 0 1 479.73-3.4A228.27 228.27 0 0 1 706.58 866z" fill="" /><path d="M500.82 919.42a8 8 0 0 1-4-1.07L352 835.26a8 8 0 1 1 8-13.88l144.86 83.1a8 8 0 0 1-4 14.94z" fill="" /><path d="M356.21 920.24a8 8 0 0 1-4-14.92l144.4-83.9a8 8 0 0 1 8 13.84l-144.4 83.9a8 8 0 0 1-4 1.08z" fill="" /><path d="M429 962a8 8 0 0 1-8-8l-0.46-167a8 8 0 0 1 8-8 8 8 0 0 1 8 8l0.46 167a8 8 0 0 1-8 8z" fill="" /></svg>