<svg class="svg-icon" style="width: 1em; height: 1em;vertical-align: middle;fill: currentColor;overflow: hidden;" viewBox="0 0 1024 1024" version="1.1" xmlns="http://www.w3.org/2000/svg"><path d="M790.4 371.17c-28.24-98.68-119.12-170.92-226.88-170.92-110 0-202.49 75.33-228.6 177.23a211.72 211.72 0 0 0-21.48-1.1c-115 0-208.31 93.27-208.31 208.31S198.39 793 313.44 793h443.14c117.23 0 212.26-95 212.26-212.26 0-105.74-77.29-193.37-178.44-209.57z" fill="#CEE9F4" /><path d="M706.58 779H516a16 16 0 0 1 0-32h190.58c108.22 0 196.26-88 196.26-196.26 0-97-69.38-178.46-165-193.77A16 16 0 0 1 725 345.58c-26.85-93.81-113.82-159.33-211.5-159.33a219.8 219.8 0 0 0-213.1 165.2 16 16 0 0 1-17.13 11.95 196.18 196.18 0 0 0-19.85-1c-106 0-192.31 86.27-192.31 192.31S157.4 747 263.44 747h26.4a16 16 0 0 1 0 32h-26.4a224.31 224.31 0 0 1 0-448.62q4.81 0 9.66 0.21a252.06 252.06 0 0 1 479.73-3.4A228.27 228.27 0 0 1 706.58 779z" fill="" /><path d="M486 843.9c0 55.72-30.91 77.3-69 77.3s-69-21.58-69-77.3 69-124.49 69-124.49 69 68.77 69 124.49z" fill="#F7D134" /><path d="M404 905.59c-22.35 0-41.18-6.93-54.44-20.06-15-14.83-22.6-36.78-22.6-65.23 0-58.37 68.48-127.26 71.39-130.16a8 8 0 0 1 11.29 0C412.55 693 481 761.93 481 820.3c0 28.45-7.6 50.4-22.59 65.23-13.25 13.13-32.08 20.06-54.41 20.06z m0-198.16c-16.1 17.5-61 70.19-61 112.87 0 57.27 33.19 69.29 61 69.29s61-12 61-69.29c0-42.74-44.91-95.38-61-112.87z" fill="" /></svg>