<svg class="svg-icon" style="width: 1em; height: 1em;vertical-align: middle;fill: currentColor;overflow: hidden;" viewBox="0 0 1024 1024" version="1.1" xmlns="http://www.w3.org/2000/svg"><path d="M170.666667 426.666667a42.666667 42.666667 0 0 1-42.666667-42.666667 42.666667 42.666667 0 0 1 42.666667-42.666667h341.333333a85.333333 85.333333 0 0 0 85.333333-85.333333 85.333333 85.333333 0 0 0-85.333333-85.333333c-23.466667 0-44.8 9.386667-60.16 25.173333a41.514667 41.514667 0 0 1-60.586667 0c-16.64-16.64-16.64-43.946667 0-60.586667C422.4 104.533333 465.066667 85.333333 512 85.333333a170.666667 170.666667 0 0 1 170.666667 170.666667 170.666667 170.666667 0 0 1-170.666667 170.666667H170.666667m640 85.333333a42.666667 42.666667 0 0 0 42.666666-42.666667 42.666667 42.666667 0 0 0-42.666666-42.666666c-11.946667 0-22.613333 4.693333-30.293334 12.373333a42.496 42.496 0 0 1-60.16 0c-16.213333-16.64-16.213333-43.52 0-60.16C743.253333 355.84 775.253333 341.333333 810.666667 341.333333a128 128 0 0 1 128 128 128 128 0 0 1-128 128H213.333333a42.666667 42.666667 0 0 1-42.666666-42.666666 42.666667 42.666667 0 0 1 42.666666-42.666667h597.333334m-42.666667 256H170.666667a42.666667 42.666667 0 0 1-42.666667-42.666667 42.666667 42.666667 0 0 1 42.666667-42.666666h597.333333a128 128 0 0 1 128 128 128 128 0 0 1-128 128c-35.413333 0-67.413333-14.506667-90.453333-37.546667-16.213333-16.64-16.213333-43.52 0-60.16a42.496 42.496 0 0 1 60.16 0c7.68 7.68 18.346667 12.373333 30.293333 12.373333a42.666667 42.666667 0 0 0 42.666667-42.666666 42.666667 42.666667 0 0 0-42.666667-42.666667z" fill="" /></svg>